<?xml version="1.0" encoding="UTF-8" standalone="no"?>
<!-- Created with Inkscape (http://www.inkscape.org/) -->

<svg
   xmlns:dc="http://purl.org/dc/elements/1.1/"
   xmlns:cc="http://creativecommons.org/ns#"
   xmlns:rdf="http://www.w3.org/1999/02/22-rdf-syntax-ns#"
   xmlns:svg="http://www.w3.org/2000/svg"
   xmlns="http://www.w3.org/2000/svg"
   xmlns:xlink="http://www.w3.org/1999/xlink"
   xmlns:sodipodi="http://sodipodi.sourceforge.net/DTD/sodipodi-0.dtd"
   xmlns:inkscape="http://www.inkscape.org/namespaces/inkscape"
   width="1101.5087mm"
   height="1101.5087mm"
   viewBox="0 0 1101.5087 1101.5087"
   version="1.1"
   id="svg8"
   inkscape:version="0.92.4 (5da689c313, 2019-01-14)"
   sodipodi:docname="ApacheJMeter_Icon_Custom.svg">
  <defs
     id="defs2">
    <linearGradient
       y2="1152.7261"
       x2="-5086.9941"
       y1="1152.7261"
       x1="-9346.126"
       gradientTransform="matrix(0.40376861,-0.86591455,0.86591455,0.40376861,3111.2828,-4225.118)"
       gradientUnits="userSpaceOnUse"
       id="linearGradient4110"
       xlink:href="#SVGID_8_"
       inkscape:collect="always" />
    <linearGradient
       y2="1137.7247"
       x2="-5086.9941"
       y1="1137.7247"
       x1="-9346.126"
       gradientTransform="matrix(0.40376861,-0.86591455,0.86591455,0.40376861,3111.2828,-4225.118)"
       gradientUnits="userSpaceOnUse"
       id="linearGradient4112"
       xlink:href="#SVGID_9_"
       inkscape:collect="always" />
    <linearGradient
       y2="1134.7161"
       x2="-6011.9995"
       y1="1134.7161"
       x1="-6953.4072"
       gradientTransform="matrix(0.40376861,-0.86591455,0.86591455,0.40376861,3111.2828,-4225.118)"
       gradientUnits="userSpaceOnUse"
       id="linearGradient4114"
       xlink:href="#SVGID_10_"
       inkscape:collect="always" />
    <linearGradient
       y2="1152.7261"
       x2="-5086.9941"
       y1="1152.7261"
       x1="-9346.126"
       gradientTransform="matrix(0.4226,-0.9063,0.9063,0.4226,3144.8108,-4619.2983)"
       gradientUnits="userSpaceOnUse"
       id="linearGradient4165"
       xlink:href="#SVGID_8_"
       inkscape:collect="always" />
    <linearGradient
       y2="1137.7247"
       x2="-5086.9941"
       y1="1137.7247"
       x1="-9346.126"
       gradientTransform="matrix(0.4226,-0.9063,0.9063,0.4226,3144.8108,-4619.2983)"
       gradientUnits="userSpaceOnUse"
       id="linearGradient4167"
       xlink:href="#SVGID_9_"
       inkscape:collect="always" />
    <linearGradient
       y2="1134.7161"
       x2="-6011.9995"
       y1="1134.7161"
       x1="-6953.4072"
       gradientTransform="matrix(0.4226,-0.9063,0.9063,0.4226,3144.8108,-4619.2983)"
       gradientUnits="userSpaceOnUse"
       id="linearGradient4169"
       xlink:href="#SVGID_10_"
       inkscape:collect="always" />
    <linearGradient
       id="SVGID_1_"
       gradientUnits="userSpaceOnUse"
       x1="-5167.0962"
       y1="697.55487"
       x2="-4570.1162"
       y2="1395.619"
       gradientTransform="matrix(0.4226,-0.9063,0.9063,0.4226,3144.8108,-4619.2983)">
      <stop
         offset="0"
         style="stop-color:#F69923"
         id="stop638" />
      <stop
         offset="0.3123"
         style="stop-color:#F79A23"
         id="stop640" />
      <stop
         offset="0.8383"
         style="stop-color:#E97826"
         id="stop642" />
    </linearGradient>
    <linearGradient
       id="SVGID_2_"
       gradientUnits="userSpaceOnUse"
       x1="-9585.3418"
       y1="620.50482"
       x2="-5326.209"
       y2="620.50482"
       gradientTransform="matrix(0.4226,-0.9063,0.9063,0.4226,3144.8108,-4619.2983)">
      <stop
         offset="0.3233"
         style="stop-color:#9E2064"
         id="stop663" />
      <stop
         offset="0.6302"
         style="stop-color:#C92037"
         id="stop665" />
      <stop
         offset="0.7514"
         style="stop-color:#CD2335"
         id="stop667" />
      <stop
         offset="1"
         style="stop-color:#E97826"
         id="stop669" />
    </linearGradient>
    <linearGradient
       id="SVGID_3_"
       gradientUnits="userSpaceOnUse"
       x1="-9071.207"
       y1="1047.6898"
       x2="-6533.1782"
       y2="1047.6898"
       gradientTransform="matrix(0.4226,-0.9063,0.9063,0.4226,3144.8108,-4619.2983)">
      <stop
         offset="0"
         style="stop-color:#282662"
         id="stop674" />
      <stop
         offset="9.548390e-02"
         style="stop-color:#662E8D"
         id="stop676" />
      <stop
         offset="0.7882"
         style="stop-color:#9F2064"
         id="stop678" />
      <stop
         offset="0.9487"
         style="stop-color:#CD2032"
         id="stop680" />
    </linearGradient>
    <linearGradient
       id="SVGID_4_"
       gradientUnits="userSpaceOnUse"
       x1="-9346.126"
       y1="580.81702"
       x2="-5086.9941"
       y2="580.81702"
       gradientTransform="matrix(0.4226,-0.9063,0.9063,0.4226,3144.8108,-4619.2983)">
      <stop
         offset="0.3233"
         style="stop-color:#9E2064"
         id="stop685" />
      <stop
         offset="0.6302"
         style="stop-color:#C92037"
         id="stop687" />
      <stop
         offset="0.7514"
         style="stop-color:#CD2335"
         id="stop689" />
      <stop
         offset="1"
         style="stop-color:#E97826"
         id="stop691" />
    </linearGradient>
    <linearGradient
       id="SVGID_5_"
       gradientUnits="userSpaceOnUse"
       x1="-9035.5029"
       y1="638.4408"
       x2="-6797.2012"
       y2="638.4408"
       gradientTransform="matrix(0.4226,-0.9063,0.9063,0.4226,3144.8108,-4619.2983)">
      <stop
         offset="0"
         style="stop-color:#282662"
         id="stop696" />
      <stop
         offset="9.548390e-02"
         style="stop-color:#662E8D"
         id="stop698" />
      <stop
         offset="0.7882"
         style="stop-color:#9F2064"
         id="stop700" />
      <stop
         offset="0.9487"
         style="stop-color:#CD2032"
         id="stop702" />
    </linearGradient>
    <linearGradient
       id="SVGID_6_"
       gradientUnits="userSpaceOnUse"
       x1="-9346.126"
       y1="1021.6218"
       x2="-5086.9941"
       y2="1021.6218"
       gradientTransform="matrix(0.4226,-0.9063,0.9063,0.4226,3144.8108,-4619.2983)">
      <stop
         offset="0.3233"
         style="stop-color:#9E2064"
         id="stop707" />
      <stop
         offset="0.6302"
         style="stop-color:#C92037"
         id="stop709" />
      <stop
         offset="0.7514"
         style="stop-color:#CD2335"
         id="stop711" />
      <stop
         offset="1"
         style="stop-color:#E97826"
         id="stop713" />
    </linearGradient>
    <linearGradient
       id="SVGID_7_"
       gradientUnits="userSpaceOnUse"
       x1="-9610.334"
       y1="999.73297"
       x2="-5351.2017"
       y2="999.73297"
       gradientTransform="matrix(0.4226,-0.9063,0.9063,0.4226,3144.8108,-4619.2983)">
      <stop
         offset="0.3233"
         style="stop-color:#9E2064"
         id="stop718" />
      <stop
         offset="0.6302"
         style="stop-color:#C92037"
         id="stop720" />
      <stop
         offset="0.7514"
         style="stop-color:#CD2335"
         id="stop722" />
      <stop
         offset="1"
         style="stop-color:#E97826"
         id="stop724" />
    </linearGradient>
    <linearGradient
       id="SVGID_8_"
       gradientUnits="userSpaceOnUse"
       x1="-9346.126"
       y1="1152.7261"
       x2="-5086.9941"
       y2="1152.7261"
       gradientTransform="matrix(0.4226,-0.9063,0.9063,0.4226,3144.8108,-4619.2983)">
      <stop
         offset="0.3233"
         style="stop-color:#9E2064"
         id="stop733" />
      <stop
         offset="0.6302"
         style="stop-color:#C92037"
         id="stop735" />
      <stop
         offset="0.7514"
         style="stop-color:#CD2335"
         id="stop737" />
      <stop
         offset="1"
         style="stop-color:#E97826"
         id="stop739" />
    </linearGradient>
    <linearGradient
       id="SVGID_9_"
       gradientUnits="userSpaceOnUse"
       x1="-9346.126"
       y1="1137.7247"
       x2="-5086.9941"
       y2="1137.7247"
       gradientTransform="matrix(0.4226,-0.9063,0.9063,0.4226,3144.8108,-4619.2983)">
      <stop
         offset="0.3233"
         style="stop-color:#9E2064"
         id="stop748" />
      <stop
         offset="0.6302"
         style="stop-color:#C92037"
         id="stop750" />
      <stop
         offset="0.7514"
         style="stop-color:#CD2335"
         id="stop752" />
      <stop
         offset="1"
         style="stop-color:#E97826"
         id="stop754" />
    </linearGradient>
    <linearGradient
       id="SVGID_10_"
       gradientUnits="userSpaceOnUse"
       x1="-6953.4072"
       y1="1134.7161"
       x2="-6011.9995"
       y2="1134.7161"
       gradientTransform="matrix(0.4226,-0.9063,0.9063,0.4226,3144.8108,-4619.2983)">
      <stop
         offset="0.3233"
         style="stop-color:#9E2064"
         id="stop763" />
      <stop
         offset="0.6302"
         style="stop-color:#C92037"
         id="stop765" />
      <stop
         offset="0.7514"
         style="stop-color:#CD2335"
         id="stop767" />
      <stop
         offset="1"
         style="stop-color:#E97826"
         id="stop769" />
    </linearGradient>
  </defs>
  <sodipodi:namedview
     id="base"
     pagecolor="#ffffff"
     bordercolor="#666666"
     borderopacity="1.0"
     inkscape:pageopacity="0.0"
     inkscape:pageshadow="2"
     inkscape:zoom="0.175"
     inkscape:cx="3582.8571"
     inkscape:cy="2146.0189"
     inkscape:document-units="mm"
     inkscape:current-layer="layer1"
     showgrid="false"
     inkscape:window-width="1920"
     inkscape:window-height="986"
     inkscape:window-x="-11"
     inkscape:window-y="-11"
     inkscape:window-maximized="1"
     fit-margin-top="0"
     fit-margin-left="-1.7"
     fit-margin-right="0"
     fit-margin-bottom="0" />
  <metadata
     id="metadata5">
    <rdf:RDF>
      <cc:Work
         rdf:about="">
        <dc:format>image/svg+xml</dc:format>
        <dc:type
           rdf:resource="http://purl.org/dc/dcmitype/StillImage" />
        <dc:title></dc:title>
      </cc:Work>
    </rdf:RDF>
  </metadata>
  <g
     inkscape:label="Layer 1"
     inkscape:groupmode="layer"
     id="layer1"
     transform="translate(1185.326,662.05001)">
    <g
       id="g174"
       transform="matrix(0.26458333,0,0,0.26458333,-1197.0075,-678.42013)">
      <g
         transform="translate(0,-64)"
         id="g4163">
        <path
           inkscape:connector-curvature="0"
           id="path4107"
           d="m 1893.8738,125.87885 c -32.7513,-0.3055 -67.8482,8.7279 -100.2763,27.88129 -0.01,0.004 -0.012,0.006 -0.019,0.009 -81.7497,48.22661 -183.2031,155.11803 -310.7231,310.76032 a 62.463579,62.463579 0 0 0 -0.9535,1.29135 c -8.5585,10.45382 -16.9969,20.91696 -25.4796,31.40633 a 62.463579,62.463579 0 0 0 -0.1624,0.20154 c -33.7052,42.03459 -68.6994,87.18486 -104.5329,134.99497 a 62.463579,62.463579 0 0 0 -0.01,0.0131 c -40.4093,53.94354 -81.8808,111.42652 -123.9738,171.62824 a 62.463579,62.463579 0 0 0 -0.047,0.0672 c -38.8596,55.73402 -78.2838,114.05114 -117.7113,174.39751 a 62.463579,62.463579 0 0 0 -0.011,0.0168 c -33.5022,51.3121 -67.2358,104.225 -100.7168,158.547 l -2.6219,4.236 a 62.463579,62.463579 0 0 0 -1.0375,1.5843 c -2.8594,4.6193 -5.2493,8.6335 -7.358,12.04 a 62.463579,62.463579 0 0 0 -0.16608,0.2688 c -35.22175,57.5479 -70.40801,116.5368 -104.97329,176.8812 l 0.0224,-0.035 c -34.92974,60.8859 -69.16721,122.8958 -102.62014,185.7526 l 0.0131,-0.021 c -28.26252,53.0526 -55.86243,106.6101 -82.70147,160.6743 a 62.463579,62.463579 0 0 0 -0.11571,0.2333 c -5.35483,10.9009 -10.6426,21.6727 -15.95881,32.595 a 62.463579,62.463579 0 0 0 -0.006,0.01 c -33.23791,68.317 -63.18307,134.3126 -90.31327,197.7777 a 62.463579,62.463579 0 0 0 -0.004,0.013 c -30.73273,71.9359 -57.81548,140.7453 -81.53143,206.0614 -15.64533,42.9541 -29.81484,84.398 -42.7951,124.1137 a 62.463579,62.463579 0 0 0 -0.21646,0.6774 c -10.6719,33.9562 -20.85799,68.012 -30.47142,101.898 -0.004,0.012 -0.008,0.025 -0.0112,0.037 -0.007,0.022 -0.0123,0.045 -0.0186,0.067 -22.85647,80.0559 -42.53969,160.0363 -58.73712,239.8526 a 62.463579,62.463579 0 0 0 -0.63446,4.1894 c -0.43931,1.9371 -0.79837,3.3715 -1.52274,7.1956 -0.003,0.017 -0.004,0.014 -0.008,0.032 -11.04577,55.7339 -20.22873,111.4526 -27.42968,167.1272 -6.14688,-4.7713 -12.23033,-9.4065 -18.13469,-13.7922 -20.16543,-14.9792 -38.50617,-27.2361 -52.05837,-35.8869 -6.7761,-4.3253 -12.33214,-7.7344 -16.44587,-10.1907 -2.05687,-1.2281 -3.70569,-2.1942 -5.25678,-3.0734 -0.77555,-0.4396 -1.41998,-0.8064 -2.72637,-1.4948 -0.65319,-0.3442 -1.18137,-0.6724 -3.60715,-1.7709 -1.2129,-0.5493 -1.92077,-1.2181 -8.3601,-3.094 -3.21965,-0.938 -25.39851,-1.9915 -25.40125,-1.9911 -0.003,3e-4 -49.49361,86.5579 -49.49249,86.5605 a 62.463579,62.463579 0 0 0 5.99576,10.8607 c 69.49963,100.7561 122.58276,198.2495 146.01238,288.5184 -26.88031,-4.8748 -59.39009,-13.6362 -95.08486,-26.7821 a 62.463579,62.463579 0 0 0 -63.83715,104.6055 c 17.225,15.8223 33.76516,29.4563 49.52982,41.3303 -37.58909,21.812 -73.3476,48.2725 -108.41996,74.7183 a 62.463579,62.463579 0 0 0 61.18917,107.7034 c 61.70131,-25.1628 115.04915,-39.7907 157.28358,-45.8778 -94.10479,271.3414 -188.28458,566.3481 -282.408798,877.8358 a 62.463579,62.463579 0 0 0 77.470818,77.9672 c 49.92835,-14.7378 86.71839,-55.7946 102.18684,-97.88 a 62.463579,62.463579 0 0 0 1.24282,-3.7434 c 15.99252,-53.7779 112.34541,-374.0698 265.29859,-812.9668 18.68022,18.1816 43.34942,51.3616 66.76692,93.3401 a 62.463579,62.463579 0 0 0 116.90134,-33.9591 c -1.98269,-34.9919 -9.94351,-69.5155 -23.61353,-102.0547 183.36578,-13.3941 346.74279,-81.0882 439.37151,-233.0899 9.9848,-16.3524 19.1785,-33.6255 27.439,-52.0192 a 62.463579,62.463579 0 0 0 1.3118,-47.8279 c 33.2212,-33.328 61.8432,-70.111 87.8762,-111.9301 v 0 c 17.1739,-27.5607 33.4768,-57.1068 49.9068,-89.2739 a 62.463579,62.463579 0 0 0 -22.5742,-81.3149 c 6.7616,-6.8132 13.5134,-13.6338 20.0008,-20.5979 l 0.01,-0.01 c 61.3724,-65.8598 116.34,-142.8047 166.5823,-231.5485 v -0.01 c 37.4105,-66.0661 72.2074,-138.7066 105.1301,-218.5605 l 0.01,-0.019 c 28.7804,-69.701 56.2574,-144.8599 82.6772,-226.0621 a 62.463579,62.463579 0 0 0 -1.8455,-43.4893 c 49.8516,-51.8301 89.6557,-112.1111 121.9528,-176.1591 a 62.463579,62.463579 0 0 0 -2.8066,-61.0865 c 10.2473,-13.3095 20.0318,-27.2596 29.2977,-41.9778 4.0464,-6.3922 7.9255,-12.7928 11.7247,-19.2618 a 62.463579,62.463579 0 0 0 1.6347,-2.967 c 4.6507,-9.0046 9.076,-17.7564 13.3649,-26.3343 a 62.463579,62.463579 0 0 0 0.056,-0.112 c 19.6124,-39.4228 35.3784,-74.8185 48.0463,-106.1863 6.2672,-15.5189 11.8451,-30.0981 16.737,-44.036 1.9329,-5.398 3.7384,-10.612 5.4078,-15.5221 a 62.463579,62.463579 0 0 0 0.1195,-0.3546 c 5.0361,-15.1083 9.2724,-28.8084 12.7304,-41.4478 5.1187,-18.6616 8.3741,-33.9648 10.3438,-46.3985 a 62.463579,62.463579 0 0 0 -14.8298,-50.9443 c 4.325,-5.585 8.7121,-11.108 12.8686,-16.8694 a 62.463579,62.463579 0 0 0 0.6531,-0.9219 c 13.2394,-19.0688 26.559,-38.9999 39.7794,-59.6198 a 62.463579,62.463579 0 0 0 0.011,-0.021 c 40.4075,-63.0751 79.6935,-131.9909 114.9475,-200.6384 a 62.463579,62.463579 0 0 0 0.023,-0.045 c 33.997,-66.32868 64.0443,-132.13989 87.4787,-192.47067 a 62.463579,62.463579 0 0 0 0.028,-0.0728 c 14.8655,-38.41097 27.0334,-74.53061 35.7673,-107.57274 a 62.463579,62.463579 0 0 0 0.013,-0.0448 c 7.4153,-28.13747 13.2414,-54.99457 17.7484,-80.70476 a 62.463579,62.463579 0 0 0 0.7801,-6.66941 c 22.0509,-128.94701 10.9932,-226.98924 -7.4663,-293.88899 -18.78,-68.06119 -48.9681,-109.07869 -48.9681,-109.07869 l 3.6967,5.34076 c 0,0 -22.2914,-36.33907 -59.2167,-72.4417 -36.9253,-36.10263 -92.2428,-78.40427 -167.0172,-79.10178 z m -255.2123,1383.80995 0.015,0.045 c -0.5842,0.2272 -0.6368,0.2691 -1.5134,0.5878 a 62.463579,62.463579 0 0 0 1.4985,-0.6326 z m 21.3444,298.9722 c -0.1015,0.088 -0.2121,0.1817 -0.1662,0.14 0.055,-0.049 0.111,-0.092 0.1662,-0.14 z m -240.2221,292.5399 c -0.2124,0.1784 -0.309,0.2792 -0.9517,0.6867 -0.9831,0.6233 -2.4812,1.4418 -4.6466,2.2673 2.1229,-0.8232 3.6699,-1.6476 4.6466,-2.2673 0.6349,-0.4029 0.7077,-0.4961 0.9293,-0.6774 0.01,0 0.015,-0.01 0.023,-0.01 z m -761.01105,811.7333 c 0.095,-0.285 -0.10444,0.5468 -0.90506,2.536 0.0666,-0.1793 0.13305,-0.3543 0.19968,-0.5337 a 62.463579,62.463579 0 0 0 0.0858,-0.2426 62.463579,62.463579 0 0 0 0.0821,-0.2314 62.463579,62.463579 0 0 0 0.53744,-1.5283 z"
           style="fill:#ffffff;stroke-width:0.91286409" />
        <g
           id="g4039"
           transform="matrix(0.9554392,0,0,0.9554392,106.60727,188.34069)">
          <path
             style="fill:url(#SVGID_1_)"
             inkscape:connector-curvature="0"
             id="path3865"
             d="M 1798.9,20.100004 C 1732.6,59.200004 1622.5,170 1491,330.5 l 120.8,228 c 84.8,-121.3 170.9,-230.4 257.8,-323.6 6.7,-7.4 10.2,-10.9 10.2,-10.9 -3.4,3.6 -6.8,7.3 -10.2,10.9 -28.1,31 -113.4,130.5 -242.1,328.1 123.9,-6.2 314.3,-31.5 469.6,-58.1 46.2,-258.8 -45.3,-377.3 -45.3,-377.3 0,0 -116.3,-188.199996 -252.9,-107.499996 z" />
          <path
             style="fill:none"
             inkscape:connector-curvature="0"
             id="path3867"
             d="m 1594.4,1320.7 c 0.9,-0.2 1.8,-0.3 2.7,-0.5 l -17.4,1.9 c -1.1,0.5 -2,1 -3.1,1.4 6,-0.9 11.9,-1.9 17.8,-2.8 z" />
          <path
             style="fill:none"
             inkscape:connector-curvature="0"
             id="path3869"
             d="m 1471.1,1729.1 c -9.9,2.2 -20,3.9 -30.2,5.4 10.2,-1.5 20.3,-3.3 30.2,-5.4 z" />
          <path
             style="fill:none"
             inkscape:connector-curvature="0"
             id="path3871"
             d="m 633.1,2645.2 c 1.3,-3.4 2.6,-6.8 3.8,-10.2 26.6,-70.2 52.9,-138.4 79,-204.9 29.3,-74.6 58.2,-146.8 86.8,-216.8 30.1,-73.8 59.8,-145.1 89.1,-214 30.7,-72.3 61,-141.9 90.7,-208.9 24.2,-54.5 48,-107.3 71.5,-158.4 7.8,-17 15.6,-33.9 23.4,-50.6 15.4,-33.1 30.7,-65.6 45.7,-97.3 13.9,-29.3 27.7,-57.9 41.4,-86 4.5,-9.4 9.1,-18.6 13.6,-27.9 0.7,-1.5 1.5,-3 2.2,-4.5 l -14.8,1.6 -11.8,-23.2 c -1.1,2.3 -2.3,4.5 -3.5,6.8 -21.2,42.1 -42.2,84.6 -63,127.5 -12,24.8 -24,49.7 -35.9,74.7 -33,69.3 -65.5,139.2 -97.4,209.6 -32.3,71.1 -63.9,142.6 -94.9,214.2 -30.5,70.3 -60.3,140.7 -89.6,210.9 -29.2,70.1 -57.7,140 -85.6,209.4 -29.1,72.5 -57.4,144.3 -84.8,215.3 -6.2,16 -12.4,32 -18.5,48 -22,57.3 -43.4,113.8 -64.3,169.6 l 18.6,36.7 16.6,-1.8 c 0.6,-1.7 1.2,-3.4 1.8,-5 26.9,-73.5 53.5,-145.1 79.9,-214.8 z" />
          <path
             style="fill:none"
             inkscape:connector-curvature="0"
             id="path3873"
             d="m 1433.2,1735.7 v 0 c 0.1,0 0.1,-0.1 0.2,-0.1 0,0 -0.1,0 -0.2,0.1 z" />
          <path
             style="fill:#be202e"
             inkscape:connector-curvature="0"
             id="path3875"
             d="m 1393.2,1934.8 c -15.4,2.8 -31.3,5.5 -47.6,8.3 -0.1,0 -0.2,0.1 -0.3,0.1 8.2,-1.2 16.3,-2.4 24.3,-3.8 8,-1.4 15.8,-2.9 23.6,-4.6 z" />
          <path
             style="opacity:0.35;fill:#be202e"
             inkscape:connector-curvature="0"
             id="path3877"
             d="m 1393.2,1934.8 c -15.4,2.8 -31.3,5.5 -47.6,8.3 -0.1,0 -0.2,0.1 -0.3,0.1 8.2,-1.2 16.3,-2.4 24.3,-3.8 8,-1.4 15.8,-2.9 23.6,-4.6 z" />
          <path
             style="fill:#be202e"
             inkscape:connector-curvature="0"
             id="path3879"
             d="m 1433.6,1735.5 c 0,0 -0.1,0 -0.1,0.1 -0.1,0 -0.1,0.1 -0.2,0.1 2.6,-0.3 5.1,-0.8 7.6,-1.1 10.3,-1.5 20.4,-3.3 30.2,-5.4 -12.3,2 -24.8,4.2 -37.5,6.3 z" />
          <path
             style="opacity:0.35;fill:#be202e"
             inkscape:connector-curvature="0"
             id="path3881"
             d="m 1433.6,1735.5 c 0,0 -0.1,0 -0.1,0.1 -0.1,0 -0.1,0.1 -0.2,0.1 2.6,-0.3 5.1,-0.8 7.6,-1.1 10.3,-1.5 20.4,-3.3 30.2,-5.4 -12.3,2 -24.8,4.2 -37.5,6.3 z" />
          <path
             style="fill:url(#SVGID_2_)"
             inkscape:connector-curvature="0"
             id="path3892"
             d="m 1255.7,1147.6 c 36.7,-68.6 73.9,-135.7 111.5,-201 39,-67.8 78.5,-133.6 118.4,-197 2.3,-3.7 4.7,-7.5 7,-11.3 39.4,-62.4 79.2,-122.4 119.3,-179.8 l -120.8,-228 c -9.1,11.1 -18.2,22.4 -27.5,33.9 -34.8,43.4 -71,90.1 -108.1,139.6 -41.8,55.8 -84.8,115.4 -128.5,177.9 -40.3,57.8 -81.2,118.3 -122.1,180.9 -34.8,53.3 -69.8,108.2 -104.5,164.5 -1.3,2.1 -2.6,4.2 -3.9,6.3 l 157.2,310.5 c 33.6,-66.5 67.6,-132.1 102,-196.5 z" />
          <path
             style="fill:url(#SVGID_3_)"
             inkscape:connector-curvature="0"
             id="path3903"
             d="m 539.7,2897.1 c -20.8,57.2 -41.7,115.4 -62.7,174.9 -0.3,0.9 -0.6,1.7 -0.9,2.6 -3,8.4 -5.9,16.8 -8.9,25.2 -14.1,40.1 -26.4,76.2 -54.5,158.3 46.3,21.1 83.5,76.7 118.7,139.8 -3.7,-65.3 -30.8,-126.7 -82.1,-174.2 228.3,10.3 425,-47.4 526.7,-214.3 9.1,-14.9 17.4,-30.5 24.9,-47.2 -46.2,58.6 -103.5,83.5 -211.4,77.4 -0.2,0.1 -0.5,0.2 -0.7,0.3 0.2,-0.1 0.5,-0.2 0.7,-0.3 158.8,-71.1 238.5,-139.3 308.9,-252.4 16.7,-26.8 32.9,-56.1 49.5,-88.6 C 1009,2841.2 848.1,2881.8 678.6,2851 l -127.1,13.9 c -4,10.7 -7.9,21.4 -11.8,32.2 z" />
          <path
             style="fill:url(#SVGID_4_)"
             inkscape:connector-curvature="0"
             id="path3914"
             d="m 599,2612.4 c 27.5,-71 55.8,-142.8 84.8,-215.3 27.8,-69.4 56.4,-139.2 85.6,-209.4 29.2,-70.2 59.1,-140.5 89.6,-210.9 31,-71.6 62.7,-143.1 94.9,-214.2 31.9,-70.3 64.4,-140.3 97.4,-209.6 11.9,-25 23.9,-49.9 35.9,-74.7 20.8,-42.9 41.8,-85.4 63,-127.5 1.1,-2.3 2.3,-4.5 3.5,-6.8 L 996.5,1033.5 c -2.6,4.2 -5.1,8.4 -7.7,12.6 -36.6,59.8 -73.1,121 -108.9,183.5 -36.2,63.1 -71.7,127.4 -106.4,192.6 -29.3,55 -57.9,110.5 -85.7,166.5 -5.6,11.4 -11.1,22.6 -16.6,33.9 -34.3,70.5 -65.2,138.6 -93.2,204.1 -31.7,74.2 -59.6,145.1 -84,212.3 -16.1,44.2 -30.7,86.9 -44.1,127.9 -11,35 -21.5,70.1 -31.4,105 -23.5,82.3 -43.7,164.4 -60.3,246.2 l 158,311.9 c 20.9,-55.8 42.3,-112.3 64.3,-169.6 6.1,-15.9 12.3,-32 18.5,-48 z" />
          <path
             style="fill:url(#SVGID_5_)"
             inkscape:connector-curvature="0"
             id="path3925"
             d="m 356.1,2529.2 c -19.8,99.8 -33.9,199.2 -41,298 -0.2,3.5 -0.6,6.9 -0.8,10.4 -49.3,-79 -181.3,-156.1 -181,-155.4 94.5,137 166.2,273 176.9,406.5 -50.6,10.4 -119.9,-4.6 -200,-34.1 83.5,76.7 146.2,97.9 170.6,103.6 -76.7,4.8 -156.6,57.5 -237.1,118.2 117.7,-48 212.8,-67 280.9,-51.6 -108,305.8 -216.3,643.4 -324.6,1001.8 33.2,-9.8 53,-32.1 64.1,-62.3 19.3,-64.9 147.4,-490.7 348.1,-1050.4 5.7,-15.9 11.5,-31.9 17.3,-48 1.6,-4.5 3.3,-9 4.9,-13.4 21.2,-58.7 43.2,-118.6 65.9,-179.7 5.2,-13.9 10.4,-27.8 15.6,-41.8 0.1,-0.3 0.2,-0.6 0.3,-0.8 L 358.4,2518.4 c -0.7,3.5 -1.6,7.1 -2.3,10.8 z" />
          <path
             style="fill:url(#SVGID_6_)"
             inkscape:connector-curvature="0"
             id="path3936"
             d="m 1178.1,1370.3 c -4.5,9.2 -9,18.5 -13.6,27.9 -13.6,28.1 -27.4,56.7 -41.4,86 -15.1,31.7 -30.3,64.1 -45.7,97.3 -7.8,16.7 -15.5,33.5 -23.4,50.6 -23.5,51.1 -47.3,103.9 -71.5,158.4 -29.7,67 -60,136.6 -90.7,208.9 -29.3,68.9 -59,140.2 -89.1,214 -28.6,70 -57.5,142.3 -86.8,216.8 -26.1,66.5 -52.4,134.7 -79,204.9 -1.3,3.4 -2.6,6.8 -3.8,10.2 -26.4,69.7 -53,141.3 -79.8,214.7 -0.6,1.7 -1.2,3.4 -1.8,5 l 127.1,-13.9 c -2.5,-0.5 -5.1,-0.8 -7.6,-1.3 152,-18.9 354,-132.5 484.6,-272.7 60.2,-64.6 114.8,-140.8 165.3,-230 37.6,-66.4 72.9,-140 106.5,-221.5 29.4,-71.2 57.6,-148.3 84.8,-231.9 -34.9,18.4 -74.9,31.9 -119,41.3 -7.7,1.6 -15.6,3.2 -23.6,4.6 -8,1.4 -16.1,2.7 -24.3,3.8 v 0 0 c 0.1,0 0.2,-0.1 0.3,-0.1 141.7,-54.5 231.1,-159.8 296.1,-288.7 -37.3,25.4 -97.9,58.7 -170.5,74.7 -9.9,2.2 -20,3.9 -30.2,5.4 -2.6,0.4 -5.1,0.8 -7.6,1.1 v 0 0 c 0.1,0 0.1,-0.1 0.2,-0.1 0,0 0.1,0 0.1,-0.1 v 0 c 49.2,-20.6 90.7,-43.6 126.7,-70.8 7.7,-5.8 15.2,-11.8 22.4,-18.1 11,-9.5 21.4,-19.5 31.4,-30 6.4,-6.7 12.6,-13.6 18.6,-20.8 14.1,-16.8 27.3,-34.9 39.7,-54.6 3.8,-6 7.5,-12.1 11.2,-18.4 4.7,-9.1 9.2,-18 13.6,-26.8 19.8,-39.8 35.6,-75.3 48.2,-106.5 6.3,-15.6 11.8,-30 16.5,-43.4 1.9,-5.3 3.7,-10.5 5.4,-15.5 5,-15 9.1,-28.3 12.3,-40 4.8,-17.5 7.7,-31.4 9.3,-41.5 v 0 0 c -4.8,3.8 -10.3,7.6 -16.5,11.3 -42.8,25.6 -116.2,48.8 -175.4,59.7 l 116.7,-12.8 -116.7,12.8 c -0.9,0.2 -1.8,0.3 -2.7,0.5 -5.9,1 -11.9,1.9 -17.9,2.9 1.1,-0.5 2,-1 3.1,-1.4 l -399.3,43.8 c -0.7,1.4 -1.4,2.8 -2.2,4.3 z" />
          <path
             style="fill:url(#SVGID_7_)"
             inkscape:connector-curvature="0"
             id="path3947"
             d="m 1627.6,563.1 c -35.5,54.5 -74.3,116.4 -116,186.5 -2.2,3.6 -4.4,7.4 -6.6,11.1 -36,60.7 -74.3,127.3 -114.5,200.3 -34.8,63 -71,130.6 -108.6,203.3 -32.8,63.3 -66.7,130.5 -101.5,201.6 l 399.3,-43.8 c 116.3,-53.5 168.3,-101.9 218.8,-171.9 13.4,-19.3 26.9,-39.5 40.3,-60.4 41,-64 81.2,-134.5 117.2,-204.6 34.7,-67.7 65.3,-134.8 88.8,-195.3 14.9,-38.5 26.9,-74.3 35.2,-105.7 7.3,-27.7 13,-54 17.4,-79.1 -155.5,26.5 -345.9,51.9 -469.8,58 z" />
          <path
             style="fill:#be202e"
             inkscape:connector-curvature="0"
             id="path3949"
             d="m 1369.6,1939.4 c -8,1.4 -16.1,2.7 -24.3,3.8 v 0 c 8.2,-1.1 16.3,-2.4 24.3,-3.8 z" />
          <path
             style="opacity:0.35;fill:#be202e"
             inkscape:connector-curvature="0"
             id="path3951"
             d="m 1369.6,1939.4 c -8,1.4 -16.1,2.7 -24.3,3.8 v 0 c 8.2,-1.1 16.3,-2.4 24.3,-3.8 z" />
          <path
             style="fill:url(#linearGradient4165)"
             inkscape:connector-curvature="0"
             id="path3962"
             d="m 1369.6,1939.4 c -8,1.4 -16.1,2.7 -24.3,3.8 v 0 c 8.2,-1.1 16.3,-2.4 24.3,-3.8 z" />
          <path
             style="fill:#be202e"
             inkscape:connector-curvature="0"
             id="path3964"
             d="m 1433.2,1735.7 c 2.6,-0.3 5.1,-0.8 7.6,-1.1 -2.5,0.3 -5,0.7 -7.6,1.1 z" />
          <path
             style="opacity:0.35;fill:#be202e"
             inkscape:connector-curvature="0"
             id="path3966"
             d="m 1433.2,1735.7 c 2.6,-0.3 5.1,-0.8 7.6,-1.1 -2.5,0.3 -5,0.7 -7.6,1.1 z" />
          <path
             style="fill:url(#linearGradient4167)"
             inkscape:connector-curvature="0"
             id="path3977"
             d="m 1433.2,1735.7 c 2.6,-0.3 5.1,-0.8 7.6,-1.1 -2.5,0.3 -5,0.7 -7.6,1.1 z" />
          <path
             style="fill:#be202e"
             inkscape:connector-curvature="0"
             id="path3979"
             d="m 1433.5,1735.6 c 0,0 0.1,0 0.1,-0.1 v 0 0 0 c 0,0 -0.1,0 -0.1,0.1 z" />
          <path
             style="opacity:0.35;fill:#be202e"
             inkscape:connector-curvature="0"
             id="path3981"
             d="m 1433.5,1735.6 c 0,0 0.1,0 0.1,-0.1 v 0 0 0 c 0,0 -0.1,0 -0.1,0.1 z" />
          <path
             style="fill:url(#linearGradient4169)"
             inkscape:connector-curvature="0"
             id="path3992"
             d="m 1433.5,1735.6 c 0,0 0.1,0 0.1,-0.1 v 0 0 0 c 0,0 -0.1,0 -0.1,0.1 z" />
          <path
             style="fill:#6d6e71"
             inkscape:connector-curvature="0"
             id="path3994"
             d="m 2218.7,387 v 11.7 h 27.4 v 77.4 h 12.7 v -77.4 h 27.6 V 387 Z m 158.3,0 -30.6,62.2 -30.8,-62.2 h -15.3 v 89.1 h 11.7 v -70.7 l 30.3,61.3 h 8.1 l 30.3,-61.3 v 70.7 h 11.7 V 387 Z" />
        </g>
      </g>
      <path
         d="m 1042.4844,1284.2793 a 105.05013,105.05013 0 0 0 -105.03909,105.0391 v 1982.5468 c 0,162.9517 -28.6836,267.5462 -54.39062,304.5 a 105.05013,105.05013 0 0 0 -0.58399,0.8516 c -24.75864,36.3478 -65.3221,59.3203 -164.81836,59.3203 -81.04209,0 -179.55731,-17.175 -293.89257,-54.334 a 105.05013,105.05013 0 0 0 -137.50586,99.8965 v 283.6582 a 105.05013,105.05013 0 0 0 85.34179,103.1758 c 115.86763,22.1202 212.5331,33.8887 294.20508,33.8887 250.81641,0 458.82162,-68.8347 599.00582,-216.9942 140.1843,-148.1595 202.9746,-362.5416 202.9746,-624.6367 v -1971.873 a 105.05013,105.05013 0 0 0 -105.039,-105.0391 z"
         inkscape:href="#path4007"
         id="path4045"
         style="font-style:normal;font-variant:normal;font-weight:normal;font-stretch:normal;font-size:3123.27441406px;line-height:1.25;font-family:'Lucida Sans Unicode';-inkscape-font-specification:'Lucida Sans Unicode';letter-spacing:0px;word-spacing:0px;fill:#ffffff;fill-opacity:1;stroke:none;stroke-width:78.0818634"
         xlink:href="#path4007"
         inkscape:original="M 1042.4844 1389.3184 L 1042.4844 3371.8652 C 1042.4844 3544.7027 1018.0844 3666.1979 969.2832 3736.3496 C 921.49873 3806.5013 837.62187 3841.5762 717.65234 3841.5762 C 622.0834 3841.5762 513.29588 3821.7506 391.29297 3782.0996 L 391.29297 4065.7578 C 503.12896 4087.1083 594.63241 4097.7832 665.80078 4097.7832 C 1130.4285 4097.7832 1362.7422 3852.2531 1362.7422 3361.1914 L 1362.7422 1389.3184 L 1042.4844 1389.3184 z "
         inkscape:radius="105.03963"
         sodipodi:type="inkscape:offset" />
      <path
         d="m 391.29377,4065.7573 v -283.6568 q 183.00436,59.4765 326.35777,59.4765 179.95429,0 251.631,-105.2275 73.20176,-105.2275 73.20176,-364.4837 V 1389.3185 h 320.2576 v 1971.872 q 0,736.5926 -696.94159,736.5926 -106.75255,0 -274.50654,-32.0258 z"
         style="font-style:normal;font-variant:normal;font-weight:normal;font-stretch:normal;font-size:3123.27441406px;line-height:1.25;font-family:'Lucida Sans Unicode';-inkscape-font-specification:'Lucida Sans Unicode';letter-spacing:0px;word-spacing:0px;fill:#ab2056;fill-opacity:1;stroke:none;stroke-width:78.0818634"
         id="path4007"
         inkscape:connector-curvature="0" />
      <path
         d="m 1933.1055,1291.541 a 97.787167,97.787167 0 0 0 -97.7774,97.7774 V 3646.373 a 97.787167,97.787167 0 0 0 97.7774,97.7774 h 274.5058 a 97.787167,97.787167 0 0 0 97.7774,-97.7774 V 2369.7617 l 414.0644,1158.5391 a 97.787167,97.787167 0 0 0 92.0742,64.8711 h 309.5821 a 97.787167,97.787167 0 0 0 91.7246,-63.9102 L 3645.5469,2357.3301 V 3646.373 a 97.787167,97.787167 0 0 0 97.7773,97.7774 h 298.9063 a 97.787167,97.787167 0 0 0 97.7773,-97.7774 V 1389.3184 a 97.787167,97.787167 0 0 0 -97.7773,-97.7774 h -396.5098 a 97.787167,97.787167 0 0 0 -91.7441,63.9649 l -550.4942,1493.6425 -534.539,-1492.7929 a 97.787167,97.787167 0 0 0 -92.0528,-64.8145 z"
         inkscape:href="#path4009"
         id="path4047"
         style="font-style:normal;font-variant:normal;font-weight:normal;font-stretch:normal;font-size:3123.27441406px;line-height:1.25;font-family:'Lucida Sans Unicode';-inkscape-font-specification:'Lucida Sans Unicode';letter-spacing:0px;word-spacing:0px;fill:#ffffff;fill-opacity:1;stroke:none;stroke-width:78.0818634"
         xlink:href="#path4009"
         inkscape:original="M 1933.1055 1389.3184 L 1933.1055 3646.373 L 2207.6113 3646.373 L 2207.6113 1805.6543 L 2811.5273 3495.3945 L 3121.1094 3495.3945 L 3743.3242 1810.2285 L 3743.3242 3646.373 L 4042.2305 3646.373 L 4042.2305 1389.3184 L 3645.7207 1389.3184 L 3002.1562 3135.4844 L 2376.8906 1389.3184 L 1933.1055 1389.3184 z "
         inkscape:radius="97.77739"
         sodipodi:type="inkscape:offset" />
      <path
         d="M 1933.1055,3646.3723 V 1389.3185 h 443.7856 l 625.2649,1746.1666 643.5653,-1746.1666 h 396.5094 V 3646.3723 H 3743.3236 V 1810.2286 L 3121.1088,3495.3937 H 2811.5264 L 2207.612,1805.6535 v 1840.7188 z"
         style="font-style:normal;font-variant:normal;font-weight:normal;font-stretch:normal;font-size:3123.27441406px;line-height:1.25;font-family:'Lucida Sans Unicode';-inkscape-font-specification:'Lucida Sans Unicode';letter-spacing:0px;word-spacing:0px;fill:#000000;fill-opacity:1;stroke:none;stroke-width:78.0818634"
         id="path4009"
         inkscape:connector-curvature="0" />
      <path
         d="m 1629.9595,1450.1892 c 0.8599,-0.191 1.7198,-0.2866 2.5797,-0.4777 l -16.6246,1.8154 c -1.051,0.4777 -1.9109,0.9554 -2.9619,1.3376 5.7326,-0.8599 11.3697,-1.8154 17.0068,-2.6753 z"
         id="path4053"
         inkscape:connector-curvature="0"
         style="fill:none;stroke-width:0.95543921" />
      <path
         d="m 1512.1539,1840.3906 c -9.4589,2.102 -19.1088,3.7262 -28.8543,5.1594 9.7455,-1.4332 19.3954,-3.153 28.8543,-5.1594 z"
         id="path4055"
         inkscape:connector-curvature="0"
         style="fill:none;stroke-width:0.95543921" />
      <path
         d="m 711.49583,2715.6685 c 1.24207,-3.2485 2.48414,-6.497 3.63067,-9.7455 25.41468,-67.0718 50.54273,-132.2328 75.47969,-195.7695 27.99437,-71.2758 55.60656,-140.2585 82.93213,-207.1392 28.75872,-70.5114 57.13526,-138.6343 85.12963,-204.464 29.33198,-69.0783 58.28175,-135.5768 86.65835,-199.5913 23.1216,-52.0714 45.8611,-102.5186 68.3139,-151.3415 7.4524,-16.2425 14.9048,-32.3894 22.3573,-48.3453 14.7137,-31.625 29.3319,-62.6768 43.6635,-92.9642 13.2806,-27.9944 26.4657,-55.3199 39.5552,-82.1678 4.2995,-8.9811 8.6945,-17.7711 12.994,-26.6567 0.6688,-1.4332 1.4332,-2.8663 2.102,-4.2995 l -14.1405,1.5287 -11.2742,-22.1662 c -1.051,2.1975 -2.1975,4.2995 -3.3441,6.497 -20.2553,40.224 -40.3195,80.8302 -60.1926,121.8185 -11.4653,23.6949 -22.9306,47.4853 -34.3003,71.3713 -31.5295,66.2119 -62.5813,132.9971 -93.0598,200.2601 -30.86066,67.9317 -61.05254,136.2456 -90.67116,204.655 -29.14089,67.1674 -57.61298,134.4303 -85.60735,201.5022 -27.89882,66.9763 -55.12884,133.7615 -81.7856,200.0689 -27.80328,69.2694 -54.84221,137.8699 -81.02124,205.7061 -5.92372,15.287 -11.84745,30.5741 -17.67562,45.8611 -21.01967,54.7466 -41.46607,108.729 -61.43474,162.0425 l 17.77116,35.0646 15.86029,-1.7198 c 0.57327,-1.6242 1.14653,-3.2485 1.7198,-4.7772 25.70131,-70.2248 51.11599,-138.6342 76.33959,-205.2283 z"
         id="path4057"
         inkscape:connector-curvature="0"
         style="fill:none;stroke-width:0.95543921" />
      <path
         d="m 1475.9427,1846.6965 v 0 c 0.096,0 0.096,-0.095 0.1911,-0.095 0,0 -0.096,0 -0.1911,0.095 z"
         id="path4059"
         inkscape:connector-curvature="0"
         style="fill:none;stroke-width:0.95543921" />
      <path
         d="m 1437.7252,2036.9245 c -14.7138,2.6752 -29.9053,5.2549 -45.4789,7.9301 -0.096,0 -0.1911,0.096 -0.2867,0.096 7.8346,-1.1465 15.5737,-2.293 23.2172,-3.6306 7.6435,-1.3376 15.0959,-2.7708 22.5484,-4.395 z"
         id="path4061"
         inkscape:connector-curvature="0"
         style="fill:#be202e;stroke-width:0.95543921" />
      <path
         d="m 1437.7252,2036.9245 c -14.7138,2.6752 -29.9053,5.2549 -45.4789,7.9301 -0.096,0 -0.1911,0.096 -0.2867,0.096 7.8346,-1.1465 15.5737,-2.293 23.2172,-3.6306 7.6435,-1.3376 15.0959,-2.7708 22.5484,-4.395 z"
         id="path4063"
         inkscape:connector-curvature="0"
         style="opacity:0.35;fill:#be202e;stroke-width:0.95543921" />
      <path
         d="m 1476.3249,1846.5054 c 0,0 -0.096,0 -0.096,0.096 -0.096,0 -0.096,0.095 -0.1911,0.095 2.4841,-0.2866 4.8727,-0.7643 7.2613,-1.051 9.841,-1.4331 19.491,-3.1529 28.8543,-5.1593 -11.7519,1.9108 -23.6949,4.0128 -35.829,6.0192 z"
         id="path4065"
         inkscape:connector-curvature="0"
         style="fill:#be202e;stroke-width:0.95543921" />
      <path
         d="m 1476.3249,1846.5054 c 0,0 -0.096,0 -0.096,0.096 -0.096,0 -0.096,0.095 -0.1911,0.095 2.4841,-0.2866 4.8727,-0.7643 7.2613,-1.051 9.841,-1.4331 19.491,-3.1529 28.8543,-5.1593 -11.7519,1.9108 -23.6949,4.0128 -35.829,6.0192 z"
         id="path4067"
         inkscape:connector-curvature="0"
         style="opacity:0.35;fill:#be202e;stroke-width:0.95543921" />
      <path
         d="m 1415.1768,2041.3195 c -7.6435,1.3376 -15.3826,2.5797 -23.2172,3.6306 v 0 c 7.8346,-1.0509 15.5737,-2.293 23.2172,-3.6306 z"
         id="path4081"
         inkscape:connector-curvature="0"
         style="fill:#be202e;stroke-width:0.95543921" />
      <path
         d="m 1415.1768,2041.3195 c -7.6435,1.3376 -15.3826,2.5797 -23.2172,3.6306 v 0 c 7.8346,-1.0509 15.5737,-2.293 23.2172,-3.6306 z"
         id="path4083"
         inkscape:connector-curvature="0"
         style="opacity:0.35;fill:#be202e;stroke-width:0.95543921" />
      <path
         d="m 1415.1768,2041.3195 c -7.6435,1.3376 -15.3826,2.5797 -23.2172,3.6306 v 0 c 7.8346,-1.0509 15.5737,-2.293 23.2172,-3.6306 z"
         id="path4085"
         inkscape:connector-curvature="0"
         style="fill:url(#linearGradient4110);stroke-width:0.95543921" />
      <path
         d="m 1475.9427,1846.6965 c 2.4842,-0.2866 4.8728,-0.7643 7.2614,-1.051 -2.3886,0.2867 -4.7772,0.6688 -7.2614,1.051 z"
         id="path4087"
         inkscape:connector-curvature="0"
         style="fill:#be202e;stroke-width:0.95543921" />
      <path
         d="m 1475.9427,1846.6965 c 2.4842,-0.2866 4.8728,-0.7643 7.2614,-1.051 -2.3886,0.2867 -4.7772,0.6688 -7.2614,1.051 z"
         id="path4089"
         inkscape:connector-curvature="0"
         style="opacity:0.35;fill:#be202e;stroke-width:0.95543921" />
      <path
         d="m 1475.9427,1846.6965 c 2.4842,-0.2866 4.8728,-0.7643 7.2614,-1.051 -2.3886,0.2867 -4.7772,0.6688 -7.2614,1.051 z"
         id="path4091"
         inkscape:connector-curvature="0"
         style="fill:url(#linearGradient4112);stroke-width:0.95543921" />
      <path
         d="m 1476.2294,1846.601 c 0,0 0.096,0 0.096,-0.096 v 0 0 0 c 0,0 -0.096,0 -0.096,0.096 z"
         id="path4093"
         inkscape:connector-curvature="0"
         style="fill:#be202e;stroke-width:0.95543921" />
      <path
         d="m 1476.2294,1846.601 c 0,0 0.096,0 0.096,-0.096 v 0 0 0 c 0,0 -0.096,0 -0.096,0.096 z"
         id="path4095"
         inkscape:connector-curvature="0"
         style="opacity:0.35;fill:#be202e;stroke-width:0.95543921" />
      <path
         d="m 1476.2294,1846.601 c 0,0 0.096,0 0.096,-0.096 v 0 0 0 c 0,0 -0.096,0 -0.096,0.096 z"
         id="path4097"
         inkscape:connector-curvature="0"
         style="fill:url(#linearGradient4114);stroke-width:0.95543921" />
    </g>
  </g>
</svg>
